#!OML:ASF F:\VICON\USERDATA\INSTALL\rory3\rory3.ASF
:FULLY-SPECIFIED
:DEGREES
1019
root 5.55239 17.4254 1.50482 19.347 2.49122 1.02536
lowerback -11.2753 -0.897452 10.1452
upperback -13.953 -1.69784 0.583672
thorax -9.15245 -1.80927 -5.06383
lowerneck -3.53981 20.014 10.5733
upperneck 8.53569 26.2381 -0.395547
head 4.49084 13.2564 -0.0189725
rclavicle 2.48481e-014 1.90833e-014
rhumerus -8.35289 -30.9138 31.0077
rradius 111.937
rwrist -63.818
rhand -4.41023 -43.8407
rfingers 7.12502
rthumb 21.36 -72.6834
lclavicle 2.48481e-014 1.90833e-014
lhumerus 22.9708 26.5708 -12.9954
lradius 32.2448
lwrist 54.3141
lhand -21.0168 -14.893
lfingers 7.12502
lthumb 5.35815 15.0192
rfemur -10.2546 10.7888 -8.8972
rtibia 9.80166
rfoot -16.971 -20.5699
rtoes 44.6182
lfemur -18.1127 3.48637 -30.819
ltibia 16.5815
lfoot -16.7018 1.48219
ltoes 8.86196
1020
root 5.55139 17.4264 1.50417 19.3537 2.48007 0.981082
lowerback -11.2906 -0.889169 10.1684
upperback -13.9233 -1.69112 0.593179
thorax -9.10885 -1.80442 -5.06758
lowerneck -3.64263 20.0435 10.4757
upperneck 8.53061 26.2577 -0.264911
head 4.47585 13.2679 0.0339254
rclavicle -2.56432e-014 -3.26007e-014
rhumerus -8.40296 -30.9499 31.0399
rradius 111.913
rwrist -63.7528
rhand -4.1311 -43.7096
rfingers 7.12502
rthumb 21.6281 -72.5217
lclavicle -2.56432e-014 -3.26007e-014
lhumerus 22.9056 26.56 -13.0845
lradius 32.266
lwrist 54.3247
lhand -21.2138 -15.095
lfingers 7.12502
lthumb 5.16794 14.822
rfemur -10.2792 10.8221 -8.85128
rtibia 9.78172
rfoot -16.4347 -21.0159
rtoes 43.7238
lfemur -18.1264 3.38502 -30.7506
ltibia 16.5641
lfoot -16.6455 1.54463
ltoes 8.92266
1021
root 5.54622 17.4292 1.49413 19.5646 2.59424 1.04905
lowerback -11.3374 -0.966067 10.0185
upperback -13.9588 -1.78822 0.615127
thorax -9.12753 -1.83948 -4.96288
lowerneck -3.96815 20.0889 10.3729
upperneck 8.68788 26.2688 -0.0639874
head 4.53542 13.277 0.138956
rclavicle 4.49253e-014 3.18055e-015
rhumerus -8.42907 -31.0259 31.0004
rradius 111.894
rwrist -63.691
rhand -3.92337 -43.612
rfingers 7.12502
rthumb 21.8275 -72.401
lclavicle 4.49253e-014 3.18055e-015
lhumerus 23.0384 27.1028 -12.8292
lradius 32.1327
lwrist 53.8095
lhand -21.0132 -14.9612
lfingers 7.12502
lthumb 5.36159 14.951
rfemur -10.4352 10.6214 -8.89709
rtibia 9.72718
rfoot -15.568 -21.7463
rtoes 42.3135
lfemur -18.4003 3.18466 -30.7761
ltibia 16.5698
lfoot -16.572 1.54773
ltoes 9.23923
1022
root 5.54523 17.4293 1.49027 19.6548 2.64115 1.04467
lowerback -11.3256 -0.995819 10.0084
upperback -13.9745 -1.82445 0.629543
thorax -9.15744 -1.85766 -4.94137
lowerneck -4.14825 20.0848 10.3881
upperneck 8.79755 26.2434 -0.0675207
head 4.59884 13.2632 0.161292
rclavicle -7.7526e-015 -2.3059e-014
rhumerus -8.4423 -31.0594 30.9674
rradius 111.906
rwrist -63.7214
rhand -3.95905 -43.6997
rfingers 7.12502
rthumb 21.7933 -72.4927
lclavicle -7.7526e-015 -2.3059e-014
lhumerus 23.0208 27.2948 -12.8203
lradius 32.0861
lwrist 53.7502
lhand -19.9854 -14.4756
lfingers 7.12502
lthumb 6.35392 15.4091
rfemur -10.527 10.5543 -8.88484
rtibia 9.77
rfoot -16.3981 -21.1205
rtoes 43.5535
lfemur -18.501 3.12784 -30.7612
ltibia 16.5477
lfoot -16.5678 1.55377
ltoes 9.23789
1023
root 5.54775 17.4276 1.49623 19.6178 2.67704 1.03884
lowerback -11.3646 -0.989856 10.0808
upperback -13.9996 -1.82397 0.612318
thorax -9.17267 -1.86717 -5.00058
lowerneck -3.89969 20.0468 10.4816
upperneck 8.73854 26.2267 -0.182181
head 4.56886 13.2552 0.092935
rclavicle -4.4329e-014 1.19271e-014
rhumerus -8.39787 -30.9764 30.9482
rradius 111.915
rwrist -63.7231
rhand -4.02345 -43.8022
rfingers 7.12502
rthumb 21.7314 -72.6024
lclavicle -4.4329e-014 1.19271e-014
lhumerus 22.8771 26.9684 -13.0313
lradius 32.1661
lwrist 54.042
lhand -19.2697 -14.1389
lfingers 7.12502
lthumb 7.0448 15.7238
rfemur -10.4506 10.5572 -8.85968
rtibia 9.82616
rfoot -17.7304 -19.9205
rtoes 45.4597
lfemur -18.4283 3.15372 -30.7558
ltibia 16.5272
lfoot -16.6247 1.47183
ltoes 8.99458
1024
root 5.54895 17.428 1.49926 19.595 2.7177 1.05379
lowerback -11.4124 -0.998155 10.0981
upperback -14.0356 -1.83961 0.604045
thorax -9.19327 -1.87953 -5.01986
lowerneck -3.65123 20.0313 10.5606
upperneck 8.72559 26.2339 -0.216581
head 4.54178 13.263 0.0512586
rclavicle -2.92213e-014 -1.19271e-014
rhumerus -8.35659 -30.8555 30.9754
rradius 111.947
rwrist -63.7633
rhand -4.48088 -43.8299
rfingers 7.12502
rthumb 21.2921 -72.6803
lclavicle -2.92213e-014 -1.19271e-014
lhumerus 22.8037 26.7049 -13.1347
lradius 32.2156
lwrist 54.209
lhand -19.3741 -14.0523
lfingers 7.12502
lthumb 6.94405 15.8138
rfemur -10.3629 10.5427 -8.85889
rtibia 9.76362
rfoot -16.9333 -20.6199
rtoes 44.2228
lfemur -18.4019 3.1637 -30.7658
ltibia 16.5416
lfoot -16.6195 1.43618
ltoes 9.04921
1025
root 5.54618 17.4288 1.4935 19.59 2.66812 1.06993
lowerback -11.297 -1.00635 10.0338
upperback -14.078 -1.83139 0.608678
thorax -9.30123 -1.8752 -4.97387
lowerneck -3.64377 20.0395 10.5596
upperneck 8.75233 26.2407 -0.162082
head 4.54187 13.2694 0.0666251
rclavicle 1.61016e-014 -1.35174e-014
rhumerus -8.32003 -30.8008 30.9969
rradius 111.922
rwrist -63.7457
rhand -5.11004 -43.6935
rfingers 7.12502
rthumb 20.6877 -72.6109
lclavicle 1.61016e-014 -1.35174e-014
lhumerus 22.7558 26.5966 -13.2018
lradius 32.2454
lwrist 54.3924
lhand -19.3011 -13.9448
lfingers 7.12502
lthumb 7.01447 15.919
rfemur -10.3249 10.5953 -8.89163
rtibia 9.58218
rfoot -15.3397 -21.884
rtoes 41.7946
lfemur -18.4388 3.179 -30.7862
ltibia 16.5764
lfoot -16.5802 1.52531
ltoes 9.08311
